<?xml version="1.0" encoding="utf-8"?>
<!-- Generator: Adobe Illustrator 16.0.0, SVG Export Plug-In . SVG Version: 6.00 Build 0)  -->
<!DOCTYPE svg PUBLIC "-//W3C//DTD SVG 1.1//EN" "http://www.w3.org/Graphics/SVG/1.1/DTD/svg11.dtd" [
	<!ENTITY ns_extend "http://ns.adobe.com/Extensibility/1.0/">
	<!ENTITY ns_ai "http://ns.adobe.com/AdobeIllustrator/10.0/">
	<!ENTITY ns_graphs "http://ns.adobe.com/Graphs/1.0/">
	<!ENTITY ns_vars "http://ns.adobe.com/Variables/1.0/">
	<!ENTITY ns_imrep "http://ns.adobe.com/ImageReplacement/1.0/">
	<!ENTITY ns_sfw "http://ns.adobe.com/SaveForWeb/1.0/">
	<!ENTITY ns_custom "http://ns.adobe.com/GenericCustomNamespace/1.0/">
	<!ENTITY ns_adobe_xpath "http://ns.adobe.com/XPath/1.0/">
]>
<svg version="1.1" id="Layer_1" xmlns:x="&ns_extend;" xmlns:i="&ns_ai;" xmlns:graph="&ns_graphs;"
	 xmlns="http://www.w3.org/2000/svg" xmlns:xlink="http://www.w3.org/1999/xlink" x="0px" y="0px" width="597.84px"
	 height="597.553px" viewBox="0 0 597.84 597.553" enable-background="new 0 0 597.84 597.553" xml:space="preserve">
<metadata>
	<sfw  xmlns="&ns_sfw;">
		<slices></slices>
		<sliceSourceBounds  height="599.123" width="392.324" bottomLeftOrigin="true" x="-98.242" y="6.661"></sliceSourceBounds>
	</sfw>
</metadata>
<path fill="none" stroke="#000000" stroke-width="1.5691" stroke-linecap="round" d="M459.626,189.475
	c0,1.836-5.736,8.031-8.26,11.702c-2.524,3.671-8.949,12.162-20.88,18.127c-11.932,5.965-13.577,5.806-30.059,13.996
	c-17.323,8.609-16.979,10.555-22.485,15.603s-11.458,7.342-18.126,7.342c-5.278,0-8.72-2.752-10.326-8.031
	c-1.606-5.276,0.688-9.867,4.36-13.767c3.671-3.9,10.325-7.342,15.603-10.326c5.277-2.982,10.096-5.736,28.911-11.472
	c18.738-5.713,22.486-6.426,28.452-10.785c5.965-4.36,12.39-11.243,15.603-15.374c3.212-4.129,2.982-6.195,7.572-6.883
	 M377.712,247.068c-14.915-7.801,14.685-23.863,23.863-26.386c9.178-2.525,36.982-12.044,49.275-26.527 M369.911,249.362
	c-2.295,1.606-4.36,2.295-8.49,2.983c-4.13,0.688-7.89-1.943-8.948-3.442c-2.173-3.073-2.295-7.113,0.229-12.39 M459.626,189.475
	c0.356-3.333,0.149-3.909-0.357-5.256c-0.504-1.347-1.515-3.873-9.28-4.611 M405.209,251.161c1.598-1.665,6.139-5.82,10.162-12.051
	 M417.456,251.239c3.443-4.66,7.446-12.129,7.877-19.812c0.318-5.684-1.321-8.786-5.901-7.059 M418.235,234.937
	c0,1.717-1.56,2.106-2.028,0.937c-0.468-1.17-1.092-3.588,0.312-7.02c1.403-3.432,4.446-4.212,6.161-3.822
	c1.716,0.39,1.794,1.716,2.106,3.197 M413.946,230.492c-0.547,1.56-0.703,1.872-0.391,4.68c0.312,2.809,2.651,4.057,4.914,3.51
	c2.262-0.546,2.184-3.744,2.418-5.537c0.234-1.795-0.445-3.726-2.006-3.96c-1.56-0.234-2.495,1.559-3.119,2.808 M379.376,278.712
	c8.052-8.426,19.132-18.724,25.833-27.551 M361.475,337.273c1.301-6.389,3.144-11.654,6.311-18.199
	c3.167-6.545,9.078-15.625,15.201-25.759c6.123-10.134,24.703-29.348,34.468-42.076 M367.786,316.117
	c-2.745,0.846,0.422-5.066,2.322-8.656c1.901-3.59,5.49-15.412,7.602-22.379c2.112-6.968,3.589-15.625,4.222-21.747
	c0.644-6.22-1.477-10.134-4.645-13.09 M379.609,266.079c1.9-12.035-4.433-12.879-7.39-12.667 M347.307,350.109
	c0.422-6.545-1.056,0,0.845-12.035c1.9-12.033,3.588-18.367,6.122-26.178c2.533-7.812,7.812-20.481,10.979-30.404
	c3.167-9.923,2.744-13.513,3.799-26.604 M367.575,352.009c2.956,2.746,2.323,5.49,1.688,5.912c-0.633,0.422-1.055,1.268-1.688,3.801
	c-0.634,2.533-2.534,4.221-7.178,5.066c-4.646,0.844-8.86-1.002-9.712-2.322c-2.189-3.389-2.957-6.756-3.378-14.357 M370.32,286.136
	c-4.856,14.99-11.19,31.037-13.302,41.172c-2.111,10.133-3.589,21.746-2.534,27.236 M379.821,339.763
	c5.066-1.266,13.089-5.488,18.79-9.078c5.7-3.59,16.046-14.779,19.846-19.846c3.8-5.068,5.7-9.078,5.067-10.979 M367.575,352.009
	c-1.9-1.268-3.167-2.955-4.012-4.012c-0.844-1.055-1.266-4.012-0.21-5.277c1.055-1.266,2.534-2.324,2.744-3.59
	c0.211-1.266-0.6-4.576-4.267-3.75 M362.719,344.197c2.322-0.633,10.767-2.742,17.102-4.434 M331.894,358.343
	c0,0,8.657-5.277,15.413-8.234 M362.93,345.675c10.345-1.898,29.136-6.545,42.015-13.301s24.491-25.336,26.391-29.98
	c1.901-4.645,3.801-4.013,5.067-3.168 M368.63,360.244c6.968-1.479,24.096-4.562,31.247-8.234
	c7.812-4.012,16.679-11.822,21.536-16.891c4.856-5.066,4.856-5.277,6.123-4.855 M368.196,358.125l3.691-0.756
	c7.955-1.611,21.033-4.219,27.003-7.283c7.607-3.906,16.375-11.373,21.104-16.309l0.703-0.857l0.623-0.547l2.028-2.027
	c0.563-0.59,1.512-1.102,1.937-1.535 M350.685,364.466l-17.313,8.023 M354.201,367.162l-17.874,8.283 M330.204,376.923
	c1.267,0.211,4.646-0.422,6.124-1.479 M330.204,376.923l-13.512,0.211 M318.592,373.123c0,0,9.501-0.211,11.401-0.211
	c1.267,0,1.056,0.422,3.378-0.422 M330.416,360.455l1.267,11.824 M333.372,376.501l-0.845-2.533 M318.592,373.123l-1.9,2.957
	 M318.592,373.123l0.17-11.992 M346.251,347.998c-6.757,2.957-15.624,7.178-15.624,7.178 M366.097,339.13
	c4.856-0.422,14.357-4.434,20.902-7.389c6.545-2.957,16.679-10.135,22.802-14.99c6.124-4.855,12.669-14.146,13.724-16.892
	 M393.755,333.429v-5.066 M316.692,377.134l-31.036-6.756 M318.592,373.123l-31.458-6.545 M285.022,356.023l32.258,4.873
	 M289.245,353.488c0,0,8.023,0.844,19.002,2.322c10.979,1.479,18.368,0.213,22.38-0.635 M289.878,350.531
	c0,0,17.735,2.111,23.224,2.535c5.49,0.422,15.413-0.846,18.791-2.535c3.379-1.689,6.123-2.533,15.624-6.545 M282.7,370.167v5.699
	 M314.217,389.492l-29.617-6.447 M316.692,377.134l-0.422,7.178 M334.005,377.767l0.633,6.123 M343.084,396.98
	c2.956-5.066,8.023-14.355,12.667-19.213c4.646-4.855,0-6.121,0-6.121s-0.074-4.348-0.074-4.559 M334.638,383.89l21.113-12.244
	 M334.638,383.89l-18.368,0.422 M282.7,375.867c-0.634,1.9-0.422,6.123,1.9,7.178c2.323,1.059,6.757,2.535,12.246,10.98
	 M313.736,385.791l-31.036-6.756 M334.005,385.58l-18.369,0.422 M336.261,385.128l18.856-11.795 M335.871,389.261l19.881-11.494
	 M313.736,385.791l-31.036-6.756 M316.27,384.312l-31.037-6.756 M335.812,389.337l-20.175,0.465 M361.711,364.603
	c-2.248-0.355-1.893-6.389-2.248-10.293s1.301-12.186,2.012-17.037 M358.162,366.378c1.774,0.236,0.946-2.25-0.237-3.67
	c-1.183-1.418-2.011-2.482-2.958-6.387 M361.12,364.128c0,0,3.076-2.129,4.851-3.193c1.774-1.064,0.829,0.475,0.829,1.064
	c0,0.592-1.065,1.893-2.366,2.604C363.131,365.312,362.185,364.484,361.12,364.128 M367.272,358.687
	c1.538-3.076-1.42-1.064-2.13-0.59c-0.709,0.473-2.129,1.064-4.377,2.365 M363.486,357.031c-0.119-0.117-0.154-0.393,2.721-1.418
	c1.655-0.594,1.368-3.604-2.012-1.186c-0.693,0.498-2.484,1.303-4.496,2.486 M363.841,352.417c2.011-0.592-0.828-2.01-1.302-1.656
	c-0.473,0.355-1.774,0.828-3.076,1.656 M361.948,350.05c-0.118-0.828,0.591-1.182,0.237-1.773c-0.355-0.592-1.065-0.475-2.129,0.117
	 M145.791,335.15c37.673,14.488,69.492,23.652,79.428,26.551c9.936,2.898,45.953,10.764,56.716,11.592 M282.7,370.167
	c-10.764-0.83-46.781-8.695-56.717-11.594c-9.936-2.896-42.52-12.109-80.192-26.598 M119.236,305.398
	c3.312,1.656,25.504,12.016,42.227,18.215c36.846,13.662,55.889,20.287,123.559,32.41 M131.23,307.554
	c3.312,1.656,20.085,9.051,36.808,15.25c36.846,13.662,56.767,19.023,124.437,31.146 M139.431,307.042
	c7.983,3.887,18.67,8.035,26.888,11.082c36.846,13.662,55.889,20.285,123.559,32.406 M154.616,296.167
	c-3.457-1.424-7.524-0.611-12.202,0.608c-4.677,1.221-10.631,3.651-10.981,4.069c-0.952,1.133-1.366,5.822-0.204,6.711
	 M132.486,300.503c-2.34,1.172-0.78,1.873-0.39,2.574c0.39,0.703,3.744,2.029,6.083,3.199 M154.616,296.167
	c7.983,3.886,18.671,8.034,26.888,11.083c36.845,13.66,55.889,20.285,123.56,32.406 M343.036,344.744c0,0-22.02-2.201-32.663-4.404
	 M143.303,294.158c4.771-0.734,16.234-2.263,28.345-4.465c12.111-2.202,28.626-5.137,42.572-9.909
	c13.946-4.771,30.094-13.946,45.508-21.653 M159.17,292.263c-6.606,1.834-4.554,3.903-4.554,3.903 M348.541,334.835
	c-13.288-0.547-25.69-3.67-37.434-5.506c-11.744-1.836-41.104-9.541-52.113-12.477c-11.01-2.938-46.242-15.781-63.124-21.654
	c-16.882-5.872-16.148-6.605-17.983-6.239 M350.801,323.978c-8.224-1.268-13.353-2.404-16.939-3.09
	c-7.707-1.467-35.232-7.34-48.077-10.643s-40.37-12.845-57.251-19.084c-16.882-6.238-23.489-7.706-27.158-7.338 M393.755,328.363
	c-11.723-0.764-21.228-1.639-28.991-2.527 M356.78,304.82c-13.446-2.381-27.552-5.183-36.498-7.419
	c-16.214-4.053-41.104-10.275-64.224-16.881s-20.185-6.973-27.892-5.873 M414.601,312.082c-2.202-1.836-13.58-1.836-23.122-2.201
	c-3.028-0.117-9.385-0.938-17.261-2.154 M363.921,285.447c-7.736-1.796-14.789-3.464-19.067-4.462
	c-11.884-2.772-47.14-10.695-64.175-15.449c-17.034-4.754-14.54-3.633-21.385-3.425c-6.03,0.183-15.059,4.07-19.415,6.08
	c-6.292,2.905-2.775,4.08-2.38,6.457 M423.524,299.86c0.631-4.499-13.703-5.01-23.607-6.595c-3.112-0.498-8.533-1.621-14.874-3.016
	 M116.741,315.376c0,0,0.455-6.764,0.688-9.33c0.233-2.562,5.361-3.496,8.625-5.826 M126.054,300.22
	c-0.933-3.265-1.399-6.294-1.631-17.017c-0.233-10.723,3.263-24.476,6.759-38.696 M126.054,300.22
	c0.699,1.865,0.563,5.109,5.176,7.334 M131.182,244.508c1.399-4.896,1.865-6.759,3.264-15.851
	c1.398-9.091-0.466-15.851-2.331-20.746s-5.828-7.227-8.392-8.159c-1.766-0.643-3.729-0.233-6.527,1.399
	c-2.797,1.631-3.548,1.532-5.265,1.454 M140.506,245.674c2.098-8.16,4.195-17.017,3.263-26.34
	c-0.789-7.891-6.76-18.649-10.956-21.68c-4.196-3.03-2.564-3.497-1.632-5.128 M140.506,245.674c0,0-3.497,12.354-4.429,16.783
	c-0.933,4.43-2.331,14.22-2.331,16.083 M111.931,202.605c-2.554-0.258-4.036-0.491-5.828-2.331c-2.76-2.834-3.263-5.595-1.632-9.091
	c1.632-3.498,4.663-6.062,11.655-10.723c6.994-4.663,21.446-9.092,34.966-12.588c13.521-3.497,37.297-4.662,53.614-6.992
	c16.317-2.333,38.462-9.091,50.35-14.919 M117.195,201.151c1.399-0.699,5.361-3.264,10.257-6.527
	c4.895-3.264,19.114-9.558,34.965-13.753c15.851-4.196,42.658-8.625,54.779-10.723c12.122-2.098,36.158-11.239,44.783-15.667
	 M106.413,188.595c-1.941,2.588-2.902,4.911-0.893,7.591c2.009,2.678,4.688,4.017,8.259,2.232c3.572-1.786,6.474-3.349,13.395-8.483
	c6.92-5.135,11.161-10.715,25.449-14.287c14.287-3.572,29.467-6.028,38.619-6.028c9.153,0,22.993-1.116,30.806-3.57 M135.433,278.56
	c0-10.045,7.59-22.101,12.278-29.468c4.687-7.367,17.188-19.198,24.333-26.118c7.143-6.92,15.18-14.734,19.644-20.315
	c4.465-5.581,5.217-10.93,4.911-16.742c-0.223-4.241-1.786-8.93-4.241-10.938 M138.301,245.107
	c2.035-7.915,4.107-16.503,3.203-25.547c-0.728-7.283-6.15-17.262-10.023-20.06c-1.862-1.345-2.768-2.361-3.188-3.116l-0.415-1.082
	c-0.068-0.314-0.093-0.613-0.081-0.902 M131.638,289.274c-2.679-7.812,1.786-26.564,5.804-40.85 M179.221,176.992
	c-1.794,2.574-1.819,3.344-1.819,5.8c0,2.455,1.117,6.367,3.572,7.812c2.72,1.602,4.688,0.447,6.25-1.339
	c1.591-2.914,0.343-4.708-0.67-4.688c-0.706,0.013-1.12,1.599-1.339,2.232c-0.3,0.867-1.339,1.562-2.456,1.117
	c-1.117-0.447-1.5-2.818-1.276-5.943c0.223-3.125,2.105-4.369,4.401-4.55 M187.801,196.804c1.95-3.666,2.729-9.126,2.574-13.181
	c-0.156-4.056-2.106-6.396-4.49-6.188 M141.392,243.134c1.248-1.716,3.744-5.46,7.019-8.58c3.276-3.12,11.388-10.452,18.408-16.068
	s16.848-15.912,20.982-21.683 M133.696,278.56c0-10.35,7.72-22.81,12.55-30.4c4.371-6.869,15.434-17.589,22.806-24.709l1.784-1.724
	c7.087-6.866,15.066-14.614,19.497-20.152c4.149-5.186,4.817-10.165,4.533-15.566c-0.197-3.736-1.443-7.916-3.607-9.686
	 M262.692,152.769c-2.138,1.712-25.088,9.124-35.494,12.117 M241.881,156.903c8.553-3.136,13.684-5.986,20.099-9.123
	 M261.435,154.662c2.708-0.998,2.391-3.416,2.106-6.551s-1.276-2.04-8.485-2.15 M254.282,146.212c-0.143-0.998,0-1.995,1.568-2.565
	c1.568-0.57,2.708-0.285,6.272-3.421c3.563-3.137,4.149-7.406,4.149-12.395 M267.396,143.647c4.134-2.565,9.124-5.132,10.406-14.968
	 M265.686,153.34c0-0.143,0.143-2.994,0-6.129c-0.143-3.137-2.28-3.137-3.279-3.137c-0.998,0-4.794-0.41-7.368-0.099
	 M273.134,153.492c-0.312-1.95-1.715-1.95-2.651-1.716c-0.936,0.234-3.275,1.638-4.446,2.808c-0.468,0.468-3.354,0.312-4.602,0.078
	 M263.931,154.974v5.148 M263.931,160.122l0.936,0.625 M264.867,160.746l-0.936,1.872 M264.867,160.746l12.346,0.939
	 M277.212,161.685l2.162-2.187 M271.731,146.082c6.551-2.651,7.331-11.231,7.487-17.16 M266.271,127.831l13.259,0.312
	 M265.959,131.107l6.091,0.144 M268.455,132.51l6.092,0.143 M269.859,134.071l6.091,0.143 M268.299,135.63l6.091,0.144
	 M265.565,137.275l6.091,0.143 M269.628,139.134l-6.091-0.144 M276.878,153.726c0,0,0.156,2.808,0,6.239 M281.402,127.675
	l-0.624,30.106 M280.778,157.781l-1.404,1.717 M279.375,159.499l1.404,1.091 M267.051,127.05l-0.936-1.091 M266.271,127.831
	l0.779-0.78 M266.115,125.959l14.156,0.468 M280.271,126.427l0.312-8.423 M279.023,210.664c3.431,0,9.36-1.56,14.04-3.432
	s15.911-6.239,23.087-9.983c7.176-3.744,5.615-3.744,5.927-5.304s0,2.184-1.56-12.792c-1.56-14.975-9.047-26.518-17.471-37.438
	c-8.424-10.92-16.535-12.792-21.644-14.04 M275.612,213.275c3.629,0,13.319-2.02,18.268-4l-0.002,0.002l1.588-0.633
	c5.347-2.126,15.182-6.043,21.703-9.444c4.102-2.141,5.63-3.297,6.241-4.051c0.652-0.805,0.789-1.456,0.817-2.134l0.081-2.229
	c-0.096-0.406-0.56-1.861-1.6-11.861c-1.606-15.411-9.25-27.318-17.918-38.555c-2.658-3.446-5.289-6.031-7.812-8.002
	c-5.928-4.634-11.265-5.906-15.053-6.831 M330.813,188.513c0.312-8.111-2.12-18.82-4.057-25.271
	c-2.807-9.36-5.304-12.48-7.799-17.472c-2.497-4.992-13.728-16.848-21.839-22.464 M333.243,180.411
	c-0.753-6.534-2.386-13.327-3.781-17.98c-2.195-7.315-4.204-10.964-6.17-14.53c-0.606-1.099-1.208-2.189-1.809-3.392
	c-2.094-4.188-10.037-13.038-17.473-19.397 M330.813,188.513c0.312,2.185,0.936,3.743,5.304-0.624
	c4.369-4.367,10.665-9.417,13.648-13.633 M347.348,172.914c0,0-3.431,3.744-9.359,9.359c-5.928,5.616-4.746-1.862-4.746-1.862
	 M342.357,138.907c2.184,4.367,4.368,14.351,5.616,21.527c1.247,7.176,0.936,9.672-0.625,12.479 M349.765,174.255
	c1.788-3.219,2.362-6.068,0.93-14.295c-1.293-7.434-3.604-17.765-5.866-22.29 M280.778,160.59
	c-0.507,11.075-2.744,44.639-2.691,48.514c0.021,1.596,0.936,1.56,0.936,1.56 M274.032,220.335c0,0,0.624-12.479,0.624-17.159
	c0-4.68,2.184-30.263,2.496-38.998 M277.151,164.178l-13.106-0.984 M261.552,208.481c0.936-14.976,2.184-39.312,2.379-45.863
	 M278.595,162.852l2.184-2.262 M350.605,237.714l-72.238-14.959 M294.122,224.053l58.159,12.221 M274.235,233.274l-0.606,26.246
	 M274.235,233.274l75.628,16.042 M381.192,255.961l16.885,3.582 M408.761,261.809l25.125,5.329 M277.427,233.95l-0.622,26.935
	 M259.728,258.132c0.548-7.431,1.824-49.651,1.824-49.651 M276.782,260.571c-12.348-3.679-13.924-2.626-17.054-2.439
	 M276.782,260.571l88.893,19.55 M388.816,285.211l42.183,9.548 M280.8,220.509c8.572-1.543,28.137-7.326,41.287-14.903
	 M294.122,224.053c-3.59-0.736-6.21-2.607,8.574-6.537c6.635-1.764,14.597-5.988,23.392-9.918 M353.355,234.987
	c-7.208-3.386-13.499-8.942-16.414-11.857c-3.931-3.931-9.171-12.164-10.854-15.532c-1.684-3.369-1.123-3.369-2.059-2.808
	 M354.106,233.388c-6.991-3.284-13.088-8.68-15.916-11.508c-3.812-3.813-8.889-11.806-10.523-15.073
	c-0.521-1.042-0.815-1.745-1.008-2.203 M365.129,226.54c-2.012-0.179-3.318-0.385-5.341-0.76c-3.595-0.666-7.056-2.929-11.715-6.391
	c-4.66-3.46-9.32-9.584-11.982-13.979c-2.663-4.393-1.731-5.991-0.932-7.588c0.799-1.598,3.195-3.195,4.659-4.66
	c1.465-1.464,7.722-7.056,10.252-9.852c2.529-2.796,3.461-1.199,4.26,0.532 M368.929,224.418c-2.711-0.238-6.075-0.669-8.476-1.568
	c-3.23-0.598-6.402-2.764-10.589-5.875c-4.367-3.244-8.708-9.006-11.205-13.125c-0.606-1.001-0.991-1.81-1.193-2.493l0.379-2.192
	c0.393-0.784,1.392-1.49,2.276-2.244c0.652-0.557,1.29-1.104,1.82-1.635l-0.065,0.063l2.672-2.515l-0.015,0.014
	c2.095-1.944,4.821-4.481,6.693-6.393 M386.148,193.029c-2.13,0.533-2.663,3.328-6.657,5.059c-3.994,1.731-9.053,1.731-14.512,0.666
	c-5.458-1.065-10.384-7.189-11.715-9.586c-1.333-2.396-1.199-3.461-2.038-2.71 M355.279,186.002c0.189,0.44,0.443,1.035,0.849,1.766
	c0.846,1.523,3.299,4.694,6.389,6.796c1.224,0.833,2.548,1.5,3.922,1.769c5,0.976,9.639,1.051,13.298-0.535
	c1.835-0.795,2.784-1.879,3.575-2.751c1.086-1.2,2.369-4.645,3.716-4.982 M392.643,214.436c2.651-3.286,0.902-6.429,0.161-8.227
	c-0.932-2.263-3.328-6.124-4.393-9.053c-1.065-2.929-1.331-4.527-2.263-4.127 M395.561,213.513c0.177-0.44,0.305-0.874,0.394-1.302
	c0.167-0.808,0.193-1.592,0.123-2.342c-0.145-1.53-0.708-2.903-1.171-3.975l-0.2-0.468c-0.416-1.009-1.105-2.323-1.851-3.735
	c-0.917-1.736-1.928-3.632-2.512-5.238l0.009,0.026l-0.568-1.631l0.005,0.015c-0.406-1.197-0.737-2.069-1.062-2.58 M447.767,180.184
	c0.313-1.618,1.54-2.311,3.173-4.06c2.213-2.372,6.515-10.263,10.231-16.916 M461.664,187.016c0.669-3.184-0.167-5.195-3.351-6.872
	c-3.185-1.675-7.206-2.178-9.384-1.842 M461.831,158.026l9.718,1.005 M472.22,169.085c2.513-7.206,0.335-9.718-0.671-10.054
	 M460.825,177.966c2.514-2.178,5.529-10.221,8.378-17.427 M466.188,178.804c2.011-5.864,4.189-12.567,4.524-18.097 M433.833,267.119
	c-1.309,8.839-2.342,19.772-2.833,27.641 M448.1,205.464c-2.042,6.528-4.113,13.925-5.036,17.578
	c-1.002,3.961-1.688,7.891-3.062,18.337 M458.678,199.464c-5.07,16.9-10.817,45.632-12.845,59.152
	c-2.028,13.521-5.07,43.606-4.732,50.028 M468.142,180.535c-4.732,15.887-10.478,38.196-14.197,59.83
	c-3.717,21.632-7.436,47.659-7.436,63.547 M375.385,151.086c-5.083,7.118-12.369,15.589-13.725,17.114
	c-1.355,1.524-4.914,4.236-2.88,9.319c2.033,5.083,4.236,8.302,6.777,9.828c2.542,1.525,4.936,1.967,9.489,0.848 M376.901,154.153
	c-5.178,7.249-11.223,14.837-12.604,16.391l-0.661,0.701c-0.528,0.544-1.267,1.228-1.692,2.182l-0.236,0.875
	c-0.054,0.556,0.058,1.185,0.348,1.909c1.653,4.13,3.212,8.58,8.416,9.612 M379.283,151.934c-1.613-6.3-2.542-2.881-3.897-0.848
	 M370.471,185.822c3.22,0.509,4.406,0.17,8.134-3.219c3.727-3.389,2.88-8.472,2.033-11.861c-0.847-3.388-2.71-9.489-3.737-16.589
	 M380.165,184.633c3.9-4.212,4.524-9.203,3.744-13.103s-3.276-11.701-4.212-17.627 M376.108,187.753
	c1.063-0.44,1.717-0.936,3.121-2.495 M391.708,163.574c-2.34,4.836-3.166-1.687-4.368-5.771c-1.56-5.304-2.964-12.479-3.744-18.564
	 M404.5,145.011c-4.836,4.835-9.048,12.167-11.544,16.536 M390.46,157.334c-1.248-4.993-2.028-9.671-2.808-14.82
	c-0.779-5.147,0.312-5.771,1.404-7.176 M402.628,136.587c1.872,4.368,0.052,6.263-0.78,7.02c-1.716,1.56-2.028,2.183-3.276,3.9
	c-1.248,1.715-3.9,5.459-5.616,8.268c-1.716,2.808-2.028,2.808-2.496,1.56 M412.611,137.991c0.625,1.403,3.588,4.679,0.156,8.267
	c-3.431,3.588-6.396,5.616-11.855,14.664c-5.46,9.047-5.928,8.268-7.487,12.011c-1.56,3.743-1.56,4.836,0.623,10.763
	c2.185,5.928,3.588,8.736,4.68,10.296 M415.42,136.899c1.248,2.027,3.12,6.396,1.092,8.735c-2.027,2.34-6.864,7.176-10.295,11.856
	c-3.432,4.68-4.992,7.955-7.488,12.167c-2.495,4.211-4.367,5.46-2.339,11.699c2.028,6.24,4.056,12.011,7.175,14.664
	 M383.597,139.238c-0.156-2.183,1.872-4.212,3.744-7.02s7.488-9.203,11.388-14.507c3.9-5.304,2.651,2.341,3.12,4.056
	 M405.125,144.231c2.963-4.057,0.468-5.772-0.468-9.517c-0.936-3.744-2.339-8.423-2.496-11.231 M402.628,136.587
	c0,0-0.624-2.808-1.092-3.588c-0.312-2.184-1.092-2.184-1.56-7.02s-1.248-2.496-2.028-1.716c-0.78,0.78-1.248,1.248-3.276,3.744
	c-2.028,2.496-4.056,5.772-5.616,7.332 M407.776,110.068c0.156,6.553,0,9.828,0.936,14.508c0.936,4.68,1.56,7.643,3.12,11.7
	 M410.584,109.289c-0.156,6.239-0.468,8.891,0.624,14.352c1.093,5.459,1.716,8.11,4.212,13.259 M344.829,137.67
	c-0.854-1.24-1.167-2.799-2.259-4.515s-1.716-2.809,1.248-4.681c2.964-1.871,5.772-4.055,9.983-8.891
	c4.213-4.836,5.929-8.112,7.332-11.388c1.404-3.276,1.78-4.438,0.469-9.828 M358.725,99.069c1.062,4.364,0.824,5.309-0.313,7.961
	c-1.309,3.053-2.917,6.102-6.843,10.608c-3.941,4.526-6.558,6.582-9.332,8.334c-1.228,0.775-2.004,1.496-2.494,2.136l-0.747,1.329
	c-0.422,1.127-0.387,2.208,0.025,3.334c0.225,0.611,0.597,1.26,1.051,1.973c0.461,0.725,1.013,2.056,1.013,2.056
	s0.744,1.341,1.272,2.107 M361.602,98.368c-3.141-7.678-6.773-11.842-10.759-18.179c-3.986-6.337-5.111-0.103-5.928,1.431
	c-0.818,1.533-1.738,3.066-3.68,5.928 M358.725,99.069c-0.908-3.913-4.535-9.688-8.292-14.383c-2.453-3.066-3.065-0.102-4.19,1.635
	s-1.328,2.453-2.351,3.883 M378.744,121.275c1.358,3.358,2.022,9.332,5.519,5.314c4.697-5.396,10.034-11.754,12.691-15.024
	c2.658-3.271,4.625-4.718,4.071-10.321c-0.75-7.571-2.741-12.93-5.315-15.127c-2.919-2.49-7.638-3.692-10.69-2.768
	c-4.317,1.308-6.925,3.474-9.991,8.79c-3.067,5.313-5.089,8.603-2.622,14.419C375.817,114.597,375.676,113.692,378.744,121.275
	 M381.354,120.042l-6.346-14.739l0.01,0.024c-0.592-1.398-0.883-2.609-0.903-3.741c-0.051-2.876,1.515-5.202,3.388-8.447
	c2.642-4.58,4.827-6.516,8.546-7.643c1.144-0.347,2.6-0.24,4.043,0.131c1.559,0.403,3.112,1.137,4.293,2.144
	c2.277,1.943,3.785,6.771,4.447,13.467c0.12,1.206,0.109,2.178-0.03,3.002c-0.313,1.859-1.318,2.901-2.511,4.313l-0.981,1.178
	c-0.926,1.139-2.233,2.619-3.723,4.306c-2.407,2.729-5.275,5.981-7.819,9.222 M383.768,123.26c-1.286,0.951-1.999-2.082-2.414-3.219
	 M356.76,158.747c-0.265-1.987-0.53-3.046-0.927-6.887c-0.397-3.842-1.192-7.684-3.974-14.704c-2.782-7.021,0-6.888,1.589-8.345
	c1.59-1.457,5.563-5.696,7.948-9.67 M356.892,159.41c0.397,3.974,2.119-1.325,4.371-3.975c2.253-2.649,5.432-6.887,10.73-13.51
	c5.298-6.624,2.384-9.007,1.457-12.054c-0.928-3.047-3.842-8.875-5.829-14.571s-3.708,0.265-5.431,2.649 M358.084,128.943
	c3.047-2.649,4.239-5.165,7.551-9.669 M365.635,119.273c1.589-2.384,1.987-0.265,2.384,0.53c0.398,0.794,1.458,3.178,2.518,6.358
	c1.06,3.178,2.517,7.153,2.384,9.669c-0.132,2.517-1.192,3.709-3.974,7.682c-2.782,3.974-3.974,5.166-6.888,9.007
	c-2.915,3.841-2.252,1.458-2.915-0.661c-0.663-2.12-0.662-2.65-1.06-5.697c-0.397-3.046-1.721-5.96-3.046-10.331
	c-1.325-4.372,0.53-4.901,3.046-6.889 M358.361,158.51l-0.265-1.785c-0.186-1.178-0.391-2.482-0.654-5.032
	c-0.409-3.954-1.217-7.908-4.079-15.133c-0.614-1.55-0.939-2.708-1.04-3.597l2.218-2.959c1.649-1.511,5.77-5.908,8.243-10.029
	 M388.153,156.098c-1.192-3.975-2.256-11.572-2.782-14.306c-0.663-3.444,0.53-4.902,1.59-6.624c1.06-1.722,7.551-9.67,11.921-15.365
	 M413.024,136.01c-1.56-4.055-2.183-7.02-3.12-11.699c-0.936-4.68-0.78-7.957-0.936-14.508 M363.525,183.344
	c-0.929-1.492-2.419-3.476-3.276-5.616c-2.033-5.083,1.538-7.223,2.894-8.748c1.355-1.524,8.641-9.997,13.725-17.114
	 M400.289,193.837c-1.093-1.56-2.497-4.367-4.681-10.296c-2.183-5.928-2.183-7.02-0.624-10.764c1.56-3.744,2.028-2.964,7.487-12.012
	c5.46-9.048,8.424-11.076,11.856-14.664s0.468-6.864-0.156-8.268 M381,123.665c-0.231-1.031-0.644-1.893-0.961-2.678
	 M380.039,120.987c-3.068-7.582-2.927-6.678-6.337-14.717c-2.467-5.816-0.445-9.105,2.621-14.42c0.474-0.82,0.936-1.566,1.396-2.244
	 M305.21,126.416c-3.789-3.316-3.473-4.58,5.052-7.578c6.032-2.122,13.736-8.21,16.578-10.421
	c2.842-2.211,10.579-9.631,17.053-18.212 M297.119,123.307c-1.145-0.424-4.54-2.417,2.408-4.312
	c6.946-1.894,10.578-3.789,17.367-8.368c6.789-4.579,14.525-11.368,23.209-21.946 M300.79,120.258
	c0.455-0.124,0.896-0.248,1.324-0.373c6.111-1.781,9.698-3.717,16.042-7.995c6.789-4.578,14.525-11.368,23.209-21.946
	 M281.925,125.537l-0.011-10.656 M281.914,114.88c24.491,2.886,46.643-21.293,59.746-42.196 M282.226,111.448
	c24.491,2.887,43.667-16.774,56.772-37.677 M481.432,33.374c-7.176-10.92-16.536-18.407-26.832-22.775
	c-10.296-4.368-23.087-7.176-36.815-9.048s-29.639-1.872-41.182-0.936s-29.327,3.744-38.063,7.176
	c-11.594,4.555-22.151,10.919-30.887,18.095c-8.736,7.176-22.776,22.775-29.951,39c-7.176,16.223-10.608,45.238-11.587,61.074
	 M311.795,39.159c-7.508,7.144-17.164,18.796-22.497,30.855c-6.66,15.058-9.618,42.03-10.527,56.727 M470.834,40.337
	c-5.677-8.639-15.801-15.456-21.187-18.065c-9.173-4.444-21.064-6.451-33.575-8.157c-12.815-1.748-27.669-1.735-38.444-0.861
	c-10.44,0.847-26.551,3.235-34.451,6.34c-10.312,4.051-19.705,9.708-27.475,16.09c-0.05,0.042-0.099,0.082-0.149,0.123
	 M306.667,50.097c-4.961,6.091-9.773,13.241-13.001,20.54c-4.681,10.583-7.534,27.05-9.131,41.006 M385.292,13.646
	c-1.134,0.068-2.235,0.146-3.296,0.231c-10.44,0.847-26.551,3.236-34.451,6.34c-7.613,2.991-14.725,6.857-21.054,11.245
	 M306.83,49.996c2.377-1.678,3.497-3.497,9.65,0c6.153,3.496,18.042,13.006,20.698,15.804c2.658,2.797,4.056,4.615,1.819,7.972
	 M348.229,52.373c-2.798,4.336-4.476,0.7-6.853-1.398c-2.377-2.097-13.427-9.93-17.343-13.007c-2.688-2.112-1.224-3.895,0.953-5.483
	c0.995-0.726,2.138-1.411,3.103-2.068 M338.577,63.841c-2.237-2.377-8.251-7.413-19.021-14.964
	c-10.768-7.553-13.146-2.797-16.363-0.28 M342.773,70.275c0.559-1.259-1.119-3.077-2.377-4.476 M337.599,51.393
	c-3.637-3.355-12.588-9.369-15.245-11.048c-2.658-1.679-4.616-3.497-3.917-4.895 M385.849,18.947
	c5.874-1.678,3.357-5.454-0.557-5.301 M348.229,52.373c4.195-8.251,13.006-17.762,16.083-20.699
	c3.076-2.937,7.832-6.573,21.537-12.727 M349.346,55.03c-2.657,4.896-3.916,3.917-4.895,3.077c-1.148-0.984-3.496-3.496-5.034-4.755
	 M349.346,55.03c1.819-4.056,9.092-14.824,15.524-20.979c5.364-5.131,16.643-11.328,22.098-13.286 M354.984,57.558
	c1.653-3.688,8.309-13.447,14.157-19.042c3.444-3.294,9.605-7.063,14.638-9.594 M390.072,29.411
	c-4.646,1.668-14.28,6.908-18.851,11.278c-5.565,5.323-11.918,14.59-13.492,18.098 M363.038,86.007
	c-1.578-3.443-5.595-9.326-9.325-15.495c-3.731-6.17-0.861-8.752,0-11.047 M368.347,89.307c-2.152,4.735-2.87,2.152-4.592-2.295
	 M365.621,83.568c-1.579-3.299-6.887-11.908-8.895-15.639c-2.01-3.73-1.005-4.591,1.003-9.142 M369.638,84.859
	c-2.439,3.875-3.299,0.575-4.017-1.291 M409.667,90.742c-0.287-3.3-1.435-6.456-3.301-9.757c-1.865-3.299-5.596-7.316-11.908-8.178
	c-6.312-0.86-9.756,0.144-13.917,1.722c-4.161,1.578-7.604,5.452-10.904,10.329 M406.884,90.934
	c-0.261-2.997-1.327-5.858-3.022-8.857c-1.128-1.997-3.041-4.305-5.962-5.761c-1.25-0.623-2.683-1.087-4.314-1.31
	c-5.821-0.793-8.995,0.142-12.832,1.598c-3.791,1.438-6.846,5.054-9.854,9.499 M432.665,74.017
	c-0.298,3.293-2.311,6.695-4.638,8.381c-4.341,3.143-13.17,10.775-17.061,15.116c-3.891,4.339-3.292-1.646-3.442-4.64
	 M409.667,90.742c0.101,1.833-0.348,4.228,2.944,1.085c3.293-3.144,7.981-6.865,10.626-8.98c2.245-1.796,6.884-3.442,6.884-9.279
	 M426.979,89.731c4.939-4.639,4.64-0.598,4.64,2.245 M408.87,106.493c1.646-2.244,12.272-11.374,16.912-15.565 M428.924,99.01
	c-0.149-2.395,0.6-6.286-4.34-2.395c-4.938,3.892-14.068,9.729-14,12.673 M431.734,93.684c0.348,7.81,0.521,11.106,3.645,21.17
	c3.124,10.064,5.206,13.361,10.238,20.477c5.055,7.146,13.187,12.493,6.594,14.228 M428.924,99.01
	c1.249,8.904,2.195,12.826,4.893,20.356c4.165,11.626,10.586,21.17,15.271,25.161 M444.228,118.326
	c-3.469-7.462-5.205-18.221-5.899-32.103 M468.521,142.098c-1.214,2.429-3.99,1.042-5.205,0.173
	c-1.215-0.867-5.726-4.685-9.023-8.329c-3.296-3.645-8.503-12.841-8.503-12.841 M443.361,82.752
	c-1.215,1.041-2.603-0.174-2.083,6.942c0.521,7.114,0,13.534,3.47,22.384c3.471,8.85,9.198,19.088,14.577,23.947
	s8.676,5.9,9.717,3.991 M479.282,67.481c-5.553,0.522-7.285,0.52-14.404,3.124c-14.229,5.206-19.608,8.677-22.558,10.065
	c-2.95,1.389-3.471,2.776-3.991,5.553 M476.308,70.003c-1.934,0.144-4.389,0.591-7.786,1.644
	c-9.913,3.068-20.128,8.502-25.16,11.105 M430.121,73.569c2.015-5.503,0.511-22.266-2.014-28.493
	c-1.88-4.637-8.75-12.958-17.166-15.65c-5.681-1.818-15.819-1.347-20.87-0.014 M432.442,74.418
	c2.139-5.845,0.367-23.57-2.314-30.184c-1.029-2.536-3.122-6.185-6.407-9.463c-3.271-3.262-7.862-6.069-12.441-7.535
	c-6.058-1.938-16.452-1.636-21.837-0.214 M441.073,68.499c0.242-9.131-1.328-21.598-3.615-27.237
	c-1.312-3.235-3.959-7.909-8.152-12.091c-4.105-4.095-9.866-7.628-15.616-9.468c-7.287-2.332-19.072-2.226-26.722,1.063
	 M443.422,67.458c-0.168-2.692-0.168-3.534-0.168-9.928c0-6.396-2.019-13.464-3.198-16.83c-1.177-3.366-4.207-9.93-11.275-16.493
	c-7.067-6.563-0.504-5.722,11.275-2.692c7.077,1.819,5.554,1.346,15.147,6.563c9.593,5.217,13.631,12.622,16.156,16.66
	 M471.358,44.739c1.851,3.03,1.851,2.861,4.039,7.742c2.188,4.881-1.683,4.375-4.207,5.217c-2.525,0.842-4.712,1.514-8.583,2.861
	c-3.87,1.347-11.78,4.376-15.145,6.396c-3.366,2.019-4.04,0.504-4.04,0.504 M461.261,62.241c-7.909,3.534-14.978,7.405-17.501,8.752
	c-2.524,1.346-3.198,1.009-3.198-0.168 M422.049,21.178c-2.692-1.851-2.861-4.208,1.179-4.544 M416.832,16.466
	c-4.544-1.178-19.017-2.861-24.739-1.178 M449.087,144.527c0.742,0.92,2.528,2.294-3.244,5.042
	c-5.773,2.749-11.545,6.459-15.531,9.347c-3.985,2.885-11.132,10.032-13.744,13.33c-2.611,3.299-7.696,10.583-9.621,14.844
	c-1.923,4.261-3.436,9.208-3.71,11.132 M412.308,182.143c3.848-6.598,11.682-16.767,23.227-24.465
	c6.179-4.119,9.62-5.497,15.393-7.559 M407.635,209.355c0-1.511,2.887-11.683,7.559-19.791c4.673-8.109,11.597-14.665,19.654-21.715
	c5.498-4.81,15.805-10.995,22.677-11.819c6.086-0.73,4.535,0.962,4.306,1.996 M410.432,209.434
	c0.152-1.831,2.913-11.054,7.188-18.472c4.527-7.855,11.267-14.177,19.072-21.006c5.143-4.5,14.739-10.375,21.167-11.147
	c1.445-0.172,2.307-0.235,2.807-0.114 M383.942,243.73l23.73,4.566 M418.058,250.294l3.665,0.705 M421.638,244.203
	c1.101,0.835,2.141,1.893,4.62,3.635c5.085,3.573-0.824,3.986-4.535,3.161 M425.708,229.696c0.922,1.466,7.284,7.009,9.895,10.169
	c2.612,3.162,4.124,3.437,4.399,1.513 M425.57,232.307c0.922,1.467,7.284,7.009,9.896,10.17c2.611,3.162,4.124,3.437,4.398,1.512
	 M382.567,245.104l23.731,4.567 M422.03,243.158c0.715,0.543,1.291,0.949,2.562,1.834l1.826,1.382
	c1.048,0.831,2.36,1.776,2.684,2.409c0.407,0.796,0.787,1.686,0.592,2.271c-0.189,0.573-0.429,0.938-1.083,1.322
	c-1.368,0.804-4.736,0.888-7.267,0.326 M421.393,252.712l-3.664-0.705 M478.871,65.039c-0.41-3.084-1.282-5.447-1.602-6.728
	 M468.521,142.098c2.469-6.568,10.028-33.484,10.669-40.853c0.642-7.369,0.962-20.827,0.091-33.764 M468.142,180.535
	c1.768-4.017,0,0,4.078-11.449c4.078-11.45,14.34-43.489,16.903-51.82c2.564-8.331,5.586-32.688,5.128-42.294
	c-0.642-13.458-6.088-28.196-12.819-41.598 M471.549,159.032c1.011-3.733,10.206-27.028,13.088-38.242
	c2.884-11.214,5.768-24.03,6.088-36.527c0.321-12.497-1.922-28.517-5.126-39.091 M466.697,161.447c0,0-1.771-0.147-4.425-0.59
	 M467.139,162.922c0,0-1.77-0.148-4.425-0.59 M467.434,164.839c0,0-1.77-0.147-4.424-0.589 M462.272,169.412
	c0,0-3.834-0.295-6.489-0.737 M463.01,171.181c0,0-2.655-0.148-6.49-0.737 M463.6,173.246c0,0-2.655-0.148-6.49-0.737
	 M460.061,174.426c0,0-2.656-0.148-6.49-0.737 M145.791,335.15l-0.245-6.592 M145.546,328.558l-28.073-8.545 M117.473,320.013
	l-0.732-4.637 M116.741,315.376l-1.953,0.244 M114.788,315.621l-1.952,8.787 M112.835,324.408l-1.954,0.732 M110.882,325.14v5.127
	 M110.882,330.267l23.923,8.055 M115.765,321.968l-0.732-4.641 M143.021,330.263l-27.256-8.295 M113.055,329.037l24.68,8.309
	 M112.835,324.408l0.219,4.629 M115.765,321.968l-2.71,7.068 M110.882,330.267l1.794,0.764 M142.939,335.164l2.852-0.014
	 M142.939,335.164l-0.312,5.773 M116.955,328.412l24.679,8.311 M142.627,340.937c-3.899,0.527-5.602,2.004-7.924,4.75
	c-2.322,2.744-3.378,5.277-3.378,11.4s1.9,25.547,2.533,33.57c0.634,8.021,2.112,37.791,2.534,58.061
	c0.422,20.27-2.011,43.113-5.338,53.529c-3.265,10.221-3.217,17.338-6.485,17.834c-3.168,0.479-6.123,0.844-9.923-1.479
	s-5.278-6.758-5.912-10.557c-0.633-3.801,3.378-5.066,5.912-5.912c2.534-0.844,4.434-1.268,5.701-3.799
	c1.267-2.535,2.323-5.914,3.8-13.092c1.478-7.18,2.745-16.467,2.534-25.969s-1.267-30.613-1.9-36.736
	c-0.633-6.123-2.533-22.592-4.011-39.904c-1.479-17.312-3.589-25.336-5.701-32.727c-2.111-7.389-2.956-11.189-2.392-18.877
	 M121.542,509.628c-2.413,1.137-5.821,0.711-6.957-0.566c-1.135-1.277-0.71-2.273,0.142-3.406c0.852-1.137,5.395-3.123,7.098-7.1
	 M130.806,489.501c-0.208,8.547-4.437,15.584-6.425,17.857 M111.746,508.636c0.284,2.555,1.816,4.363,6.554,4.836
	c2.839,0.285,9.489-4.268,11.051-11.225 M139.507,338.597c-3.899,0.527-5.602,2.004-7.924,4.748
	c-2.322,2.746-3.378,5.279-3.378,11.402s1.9,25.547,2.534,33.57c0.633,8.023,2.11,37.791,2.533,58.061
	c0.031,1.508,0.047,3.031,0.047,4.561 M143.021,330.263l2.525-1.705 M143.021,330.263l-0.082,4.9 M141.634,336.722l-2.126,1.875
	 M110.882,330.267l2.173-1.23 M314.217,389.492l-0.013-3.701 M335.812,389.337l-0.063-3 M296.846,394.025
	c9.078,14.074,13.935,24.598,14.745,50.904c0.809,26.309,1.619,52.213,1.619,67.592c0,15.381,0.81,32.379,0.81,41.283
	s-1.619,15.785-2.833,20.643c-1.214,4.857-1.619,8.498-0.81,12.547c0.81,4.047,5.286,10.947,13.785,10.543
	c8.5-0.404,9.78-1.902,12.119-5.281c2.06-2.977,3.643-6.477,2.023-11.738s-4.453-11.332-6.072-16.594
	c-1.618-5.262-2.833-44.521-1.618-70.83c1.214-26.307,2.429-55.449,4.452-69.211c2.023-13.76,4.705-20.615,8.019-26.902
	 M319.087,562.201c0.201-1.869,0.346-3.855,0.412-5.955c0.025-0.797,0.039-1.611,0.039-2.441l-2.432-109.043
	c-0.854-27.775-6.038-38.869-15.623-53.727 M338.202,394.408c-3.534,6.701-6.439,14-8.597,28.672
	c-1.882,12.799-3.086,38.779-4.22,63.553l-0.285,6.207c-1.097,23.758-0.132,57.814,1.246,69.268
	c0.175,1.461,0.358,2.553,0.544,3.209l0.068,0.23c0.285,0.928,0.606,1.879,0.95,2.846 M330.138,573.63
	c0.815,2.988,3.531,4.076,3.531,7.336s-2.445,4.346-7.335,4.617c-4.89,0.271-7.063,0-8.692-2.715
	c-1.63-2.717-2.173-9.238-1.087-11.139 M333.142,572.81c0.238,0.873,0.769,1.475,1.234,2.088c0.857,1.131,1.639,2.264,2.064,3.682
	c0.213,0.717,0.343,1.502,0.343,2.387c0,1.723-0.455,3.082-1.23,4.18c-0.565,0.799-1.311,1.473-2.271,2.01
	c-1.531,0.857-3.774,1.371-6.775,1.537c-4.362,0.244-6.99-0.123-8.908-1.391c-1.005-0.662-1.867-1.564-2.628-2.832
	c-0.955-1.592-1.677-4.225-1.955-6.82c-0.289-2.699-0.069-5.334,0.497-6.758 M427.536,330.263
	c-0.282,26.547,2.112,52.189,4.505,70.311s7.864,45.473,10.257,52.311c2.394,6.838,4.444,16.068,5.128,18.805
	c0.684,2.734,2.088,3.762,0.037,5.812c-2.05,2.051-2.532,5.145,3.04,7.521c2.502,1.068,12.06,4.529,16.412,3.076
	c2.293-0.764,2.103-3.828,3.129-5.195c1.025-1.367,3.324-2.078,3.024-4.719c-0.243-2.148-4.103-2.053-5.812-3.076
	c-1.71-1.027-3.077-0.344-5.812-7.523s-7.18-27.352-9.915-44.789c-2.736-17.436-5.812-42.736-6.154-57.779
	c-0.342-15.045,0.559-50.07,1.134-61.105 M465.195,483.181c-3.325-3.324-3.048-6.373,0.554-6.373 M461.593,483.458
	c-10.529-4.988-21.057-74.807-24.935-134.096 M454.311,450.091c-2.154-10.188-4.167-22.191-5.961-35.105 M269.349,371.648
	c2.634,18.439,7.109,38.314,7.499,43.771c0.405,5.676-0.456,7.779-1.013,9.729c-1.216,4.256-0.739,4.742,1.824,5.674
	c2.229,0.811,3.997,1.838,8.714,4.459c1.824,1.014,6.891,0,8.917-1.014s4.458-3.646,4.661-5.27c0.203-1.621,1.014-4.457-2.026-4.457
	c-3.342,0-6.485-1.621-7.498-7.5c-1.632-9.461-2.51-25.77-3.851-32.627 M289.817,434.673c0-1.014,0.038-2.959-0.203-3.648
	c-0.267-0.764-0.342-1.777-1.621-3.648c-2.635-3.85-3.04-5.27-4.661-10.943c-0.602-2.107-4.661-23.104-5.877-41.746
	 M295.491,425.351c-7.498,1.418-8.106-13.984-8.512-22.293 M439.025,307.699c0-13.744-1.793-11.354-8.026-12.939 M425.285,328.81
	c-0.3-0.344-0.621-0.957-0.998-1.992c-1.592-4.383,5.179-7.768,8.763-10.756c3.585-2.986,4.979-3.186,5.975-8.363 M433.604,328.394
	c-2.19-0.996-5.648,3.752-7.242-0.631c-1.593-4.381,5.179-7.766,8.763-10.754c3.585-2.988,4.979-3.186,5.975-8.365 M428.066,330.189
	c-1.949-0.234-2.222-0.623-2.782-1.379 M436.479,345.218c0,0-1.074-0.035-1.627-0.287c-2.272-1.039-2.623-4.082-2.651-4.369
	c-0.488-4.969-0.78-10.764-2.028-11.074 M437.231,344.775c-2.34,0.312-2.535-3.275-2.223-5.305c0.312-2.027-0.156-5.146-0.936-8.736
	 M442.028,343.058c0-6.863,0-19.188,0.312-30.42 M439.844,343.058c0-6.863,0-19.188,0.312-30.42 M462.157,156.626
	c1.608-2.346,4.113-6.363,5.435-10.323 M110.182,201.975c-4.291-7.969-2.583-8.345-0.919-11.341
	c3.065-5.517,6.437-7.356,13.18-11.647c6.743-4.291,3.065,2.452,10.728,0.306c7.662-2.145,4.291-4.904,22.987-12.565
	 M117.195,201.151c-4.327-3.583-3.642-11.129,2.182-16.954c5.824-5.822,1.226-1.226,8.275-0.612
	c7.05,0.612,17.471-1.226,25.746-11.034c5.04-5.972,7.356-3.984,17.471-7.356 M141.139,170.711c-2.759,0.613-5.517,5.21-7.663,6.131
	c-2.146,0.918-1.226-2.146-6.13-1.839 M134.702,190.634c-5.824-5.517-10.115-3.678-11.341-0.613c-1.226,3.065,0,4.29,1.227,6.743
	 M188.646,175.31c-7.05,0-7.663-6.743-18.084-6.437c-10.421,0.307-8.888,7.356-15.937,9.195c-7.05,1.839-1.227,6.437-10.422,8.275
	 M179.221,176.992c-4.521,0.149-8.352-1.989-12.336-1.683c-3.985,0.306-0.306,4.291-6.743,5.823 M245.655,150.483
	c-3.372,1.532-4.292,4.29-19.31,8.582c-15.018,4.291-0.613,2.145-11.034,4.291c-10.421,2.145-8.276,3.372-19.922,2.758
	c-11.647-0.613-7.663-1.839-16.245-2.451 M216.538,159.984c-7.662,0.613-11.034,4.904-19.616,2.452 M249.333,159.677
	c-4.904,0.919-13.486-0.307-17.777,0.307c-4.291,0.613-3.984,7.356-10.115,8.889 M143.303,294.158
	c-5.988-0.104-9.001-8.495-5.315-7.021c3.686,1.474,4.255-3.221,3.932-5.161c-0.246-1.474-2.703-3.931-6.486-3.416 M133.81,297.212
	c-3.931,1.719-1.474-1.966,0-3.932c1.475-1.966,0.737-6.144,0-10.321 M137.742,284.926c2.457,0.737,0.674-4.082-2.458-3.933
	c-1.227,0.059-1.938,0.631-1.474,1.967 M361.181,293.992c-2.346,0-10.388-6.032-20.105-7.707
	c-9.717-1.675-22.451-3.686-33.508-5.696c-11.058-2.011-1.341-5.697-7.037-6.032c-5.696-0.335-6.702,2.01-17.424-2.01
	c-10.723-4.021,9.717-2.681-4.356-7.707 M361.851,288.63c-2.681-2.01-20.105-6.03-29.153-7.371c-9.047-1.34-13.738-1.34-20.44-2.681
	c-6.702-1.341-1.341-5.026-8.042-7.371 M357.494,301.029c-2.68-0.336-11.393-7.037-15.413-10.387
	c-4.021-3.353-19.435-4.357-29.153-5.026c-9.717-0.671-24.796-7.373-35.183-10.053c-10.387-2.682-8.712-9.048-21.11-12.735
	 M245.241,266.85c16.084,1.005,22.116,12.063,30.828,15.414c8.712,3.352,19.1,7.707,30.157,9.382
	c11.059,1.676,13.739,0.671,24.797-0.67c11.058-1.339,5.361,5.362,16.753,12.065 M256.058,280.519
	c-10.964-0.741-7.131-8.643-19.194-10.653 M337.055,301.029c-5.697-1.675-1.676-5.361-4.691-5.696
	c-3.016-0.335-5.362,2.346-10.388,1.675 M283.441,309.74c-5.361-1.674-4.691-5.695-18.765-9.381
	c-14.073-3.686-1.675-4.356-13.738-7.708c-12.063-3.35,2.01-2.344-10.723-9.717c-12.733-7.371-2.011,2.682-10.723,0.67
	c-8.712-2.01-0.67,3.016-18.095-2.681 M319.63,317.783c-8.377-1.004-17.089-7.707-27.142-11.393s-8.042-6.365-24.461-10.052
	c-16.419-3.687-7.037-4.692-14.408-8.378c-7.372-3.685-3.352-4.356-9.718-10.722 M242.226,295.333c-6.031-2.346,0-6.032-8.042-8.043
	c-8.042-2.009-8.712,1.34-15.079-0.334 M297.849,291.981c5.696,0.335,14.074,5.697,10.388,4.021
	c-3.686-1.676,7.037,3.687,21.111,8.714c14.073,5.023,6.701,5.023-7.037,5.359c-13.739,0.336-9.383-0.67-15.414-2.68
	c-6.032-2.012-8.042-4.021-12.063-6.367c-4.021-2.346-9.048-4.021-16.419-5.696c-7.372-1.675-11.393-2.346-13.068-3.351
	c-1.675-1.004-8.377-7.037-7.037-7.037c1.34,0,6.032,0,13.738,0 M290.478,291.311c6.367,1.006,7.372,4.357,23.791,10.054
	c16.419,5.695,6.032,4.02-0.335,3.016c-6.366-1.006-7.372-1.676-12.397-4.355c-5.027-2.682-8.377-4.357-14.409-5.698
	c-6.031-1.34-16.419-5.697-9.047-4.69C285.451,290.641,285.786,290.307,290.478,291.311 M329.348,300.025
	c12.397,2.68,12.063,7.705,24.926,11.871 M336.384,321.134c-1.341-0.334-4.356-4.691-11.728-6.031
	c-7.372-1.34-0.67-2.346,7.372-2.346c8.042,0,3.686,2.346,20.439,4.021 M262.666,303.375c-1.676-1.004-7.372-0.67-13.739-2.01
	c-6.366-1.342-8.712-1.676-16.754-5.027c-8.042-3.352-15.75-3.016-22.451-5.362c-6.702-2.346,1.34,4.692-22.786-3.351
	 M223.125,289.971c-9.717-3.686-15.749-3.016-24.796-5.361 M349.788,330.517c0,0-5.361-0.336-10.388-3.352
	c-5.027-3.016-5.697-3.35-12.733-5.025c-7.037-1.676-4.356,1.34-25.802-4.357c-21.445-5.695-8.042-0.668-22.115-2.68
	s-13.403-2.346-24.796-5.363c-11.394-3.014-11.728-5.023-36.524-10.051c-24.796-5.027-8.042,0-23.792-5.697 M295.504,313.091
	c-7.372-1.004-14.074-1.338-26.807-3.016c-12.734-1.674-16.084-5.359-9.718-4.02c6.367,1.34,7.707,1.004,14.744,1.34
	 M333.704,332.863c-3.015-0.67-6.366-5.027-10.723-7.373c-4.356-2.346-18.429-4.355-27.142-6.031s-11.058,1.006-17.76-0.67
	c-6.702-1.674-8.042,0.336-24.46-3.352 M315.944,330.181c-1.004,0-4.356-4.355-10.722-5.361c-6.367-1.004-6.032,2.346-12.733,1.006
	 M219.439,320.464c-3.686-1.34-7.707-5.027-22.786-10.725c-15.079-5.695-8.712-6.031-12.398-8.711
	c-3.686-2.681-6.702-4.021-23.121-9.383 M322.98,331.857c-10.722-1.006-26.472-2.68-38.199-5.361
	c-11.728-2.68-3.016,4.691-11.728,2.682c-8.712-2.012-12.398-3.688-24.126-7.373c-11.728-3.686-14.073-6.367-28.482-8.377
	c-14.408-2.01-11.728-4.355-23.791-9.383c-12.063-5.026-7.372-7.707-25.006-14.351 M245.576,312.421
	c-5.361-2.01-4.356,3.688-14.744-1.004s-12.398-2.346-25.801-7.709c-13.403-5.361,6.702-1.004-0.671-5.025 M348.151,338.074
	c-5.323-2.492-17.464,0.15-28.186-2.195c-10.723-2.346-19.435-3.352-27.812-5.361c-8.377-2.012-1.005,3.016-5.362,1.676
	c-4.356-1.342-0.67,2.68,11.729,6.031 M202.015,330.517c-12.398-4.021-11.058-10.053-28.147-17.76
	c-17.09-7.707-17.424-3.686-26.472-9.717c-9.047-6.033-0.669,3.35-14.91-2.537 M263.671,332.193
	c-22.451-5.697-21.78,1.676-28.482-2.346c-6.702-4.021-14.073-1.006-25.466-4.021s-13.739-5.025-21.11-12.398
	c-7.372-7.371-15.414-6.031-20.105-7.707c-4.691-1.676-13.403-5.695-18.095-7.373c-4.691-1.675-1.341,1.341-5.697-2.01
	 M179.229,322.81c-1.34-1.006-7.708-7.037-12.733-9.047c-5.026-2.01-12.733-1.342-17.089-2.01 M319.965,342.244
	c-15.414-3.684-29.153,2.012-51.604-3.014c-22.45-5.027-15.079-1.676-23.456-3.352c-8.377-1.676-8.377,3.352-20.44,1.006
	 M264.676,345.259c13.739,2.682,33.844,1.676,37.194,0.672c3.352-1.006,13.069-0.672,31.833,3.016 M323.315,352.632
	c-0.669-0.336-7.036-2.68-14.744-3.686c-7.707-1.006-2.68,3.016-11.058,2.01 M128.631,317.449c0,0,0.411-6.814,0.076-6.814
	 M131.312,315.103v6.367 M133.658,318.789v6.367 M146.497,321.458v6.367 M148.842,325.146v6.365 M143.42,323.345v-5.648
	 M165.565,328.992v6.367 M167.911,332.679v6.365 M162.489,330.88v-5.65 M189.812,337.703v6.367 M192.159,341.388v6.367
	 M186.736,339.589v-5.65 M214.061,345.763v6.367 M216.406,349.449v6.367 M210.984,347.65v-5.648 M238.525,351.222v6.367
	 M240.871,354.91v6.367 M235.449,353.109v-5.648 M262.086,357.589v6.367 M264.431,361.275v6.367 M259.01,359.476v-5.65
	 M281.603,361.925v6.367 M278.526,363.812v-5.65 M282.7,370.167l2.323-3.342 M306.092,364.085v6.367 M303.017,365.974v-5.65
	 M328.314,366.296v6.365 M325.238,368.181v-5.648 M335.096,357.646l0.865,8.072 M337.591,358.74l0.865,8.07 M340.087,359.832
	l0.865,8.072 M319.776,417.052c-0.624-9.047-3.433-14.35-8.425-21.525 M375.457,344.496l0.865,8.07 M377.952,345.587l0.865,8.072
	 M380.449,346.679l0.865,8.072 M400.13,343.042l-0.865-8.07 M401.761,336.064l0.866,8.072 M404.257,337.156l0.864,8.072
	 M418.357,328.16l-0.554-5.168 M419.988,321.181l0.864,8.072 M423.348,330.345l-0.865-8.072 M430.728,306.212l0.553,5.17
	 M432.912,304.402l0.866,8.07 M435.408,305.494l0.865,8.072 M421.479,303.257c0,0-5.216-0.453-8.39-1.359
	c-3.174-0.908-8.844-5.669-9.524-6.349c-0.68-0.681-9.523,0-20.578-2.234 M416.717,309.382c-3.402-0.229-14.738-6.125-24.036-8.846
	c-9.296-2.721,0.453,4.762-13.605-0.226 M401.072,310.062c-2.268-0.227-8.617-4.309-9.75-4.535c-1.134-0.229-7.71,3.4-9.978,2.947
	 M422.613,298.723c-1.587,0.453-8.616-1.134-12.471-3.855 M408.328,317.089c0,0-5.668-2.041-19.273-2.268s-9.297,0.455-17.687-1.133
	 M399.938,323.666c-4.762,0-8.163-4.762-19.727-5.441c-11.564-0.68-6.35,3.627-13.152,2.494 M391.548,327.748
	c0-0.227-9.523-4.988-11.791-6.123c-2.267-1.133-0.907,4.309-6.802,4.309 M385.426,331.83c-2.041-2.947-13.152-0.455-22.222-1.361
	 M420.632,308.056L424.41,309 M422.13,310.501l3.777,0.943 M415.518,320.31l-3.777-0.943 M413.238,321.812l3.777,0.943
	 M404.754,329.203l-2.379-0.596 M402.475,330.703l3.777,0.943 M430.514,297.328l-12.948-3.277 M431.917,300.136l-4.68-1.405
	 M425.053,323.066l1.872,0.625 M425.989,322.13l1.716,0.625 M433.984,335.468L431.878,335 M432.659,336.171l2.105,0.467
	 M433.438,337.341l1.685,0.373 M131.583,343.345l-11.02-3.875 M129.662,345.8l-8.779-3.449 M123.551,346.298l4.305,1.791
	 M118.536,356.222c-0.32-3.521-0.56-5.385-1.494-8.537c-1.707-5.762-2.347-9.922-1.92-13.977 M119.923,352.38
	c-0.333-3.662-0.122-1.275-1.093-4.553c-1.625-5.482-2.264-9.438-1.858-13.297 M276.597,377.841c0-0.197-3.149-0.59-6.496-1.969
	 M276.91,380.337c0-0.197-3.149-0.59-6.496-1.969 M277.222,382.833c0-0.197-3.15-0.59-6.496-1.969 M277.533,385.33
	c0-0.197-3.149-0.592-6.496-1.969 M278.236,388.214c0-0.195-3.15-0.59-6.497-1.967 M278.236,388.214c0-0.195-3.15-0.59-6.497-1.967
	 M276.344,390.359c0-0.197-0.79-0.16-4.136-1.539 M275.251,392.464c0-0.197,0.692,0.387-2.654-0.992 M285.479,431.828
	c-0.368-0.461-2.487-1.383-5.711-2.764c-3.224-1.383-2.118-2.766-1.658-5.344 M291.927,430.353c2.313-0.672,5.436-2.211,5.343-3.777
	 M429.712,374.48l5.225,1.865 M430.934,377.142l5.225,1.867 M432.155,379.806l5.225,1.867 M433.375,382.47l5.226,1.867
	 M438.046,406.316l-5.226-1.867 M434.042,407.115l5.225,1.865 M435.263,409.779l5.225,1.865 M436.484,412.443l5.225,1.865
	 M427.714,349.392l5.225,1.865 M428.936,352.056l5.225,1.865 M430.156,354.72l5.226,1.865 M431.377,357.384l5.226,1.867
	 M439.791,442.291l5.225,1.867 M441.012,444.955l5.225,1.867 M442.233,447.621l5.225,1.865 M443.454,450.283l5.225,1.867
	 M461.593,483.458c-0.216,3.658-8.455-0.77-10.188-1.926c-1.735-1.156-1.157-3.756-1.445-5.201 M455.426,196.158
	c2.802,0.672,6.839,2.915,8.856-1.906 M463.386,195.821c-2.019,4.821-6.054,2.579-8.856,1.907 M382.527,246.053v5.792
	 M384.165,248.32v5.792 M385.801,250.586v5.792 M394.803,249.217v5.792 M396.44,251.484v5.792 M398.077,253.75v5.792
	 M275.79,222.501v5.792 M277.428,224.768v5.792 M279.064,227.035v5.792 M295.002,227.084v5.792 M296.639,229.351v5.792
	 M298.276,231.617v5.792 M313.509,231.313v5.792 M315.146,233.581v5.792 M316.784,235.847v5.792 M333.779,235.897v5.792
	 M335.416,238.163v5.792 M337.053,240.43v5.792 M421.201,253.521v5.792 M422.838,255.789v5.792 M424.475,258.055v5.792
	 M374.779,268.067c-1.164-0.526-5.64-3.172-5.992-5.288 M374.779,272.006c-1.164-0.526-5.64-3.172-5.992-5.288 M374.779,272.006
	c-1.164-0.526-5.64-3.172-5.992-5.288 M374.779,275.945c-1.164-0.526-5.64-3.172-5.992-5.288 M433.811,245.834v5.792
	 M435.448,248.101v5.792 M437.085,250.367v5.792 M426.814,201.866c6.98-5.688,7.457-0.783,10.942-2.276
	c3.485-1.494,7.468-7.22,9.957-10.207c2.489-2.986,1.244,3.237,7.965-7.218 M438.005,191.873c4.979-1.743,5.477-1.743,6.223-4.48
	c0.747-2.738,2.739-1.494,7.219-6.97 M418.341,206.808c-3.485,0.747-4.73,3.485-5.974,5.725c-1.246,2.241-3.734,6.969-12.197,7.966
	c-8.463,0.995-21.407,10.704-27.132,11.201c-5.726,0.497-4.979-0.748,0.995-4.232c5.974-3.485,0.996-5.228,6.97-8.961
	 M400.917,211.786c-3.236,0.249-1.245,5.726-5.975,6.721c-4.729,0.995-3.982,4.231-10.455,3.733c-6.472-0.498,4.48-2.24,5.974-6.72
	 M359.815,256.245c-5.507-5.074-2.211-10.358-0.966-12.349c1.245-1.991,1.742-6.472,5.476-9.21c3.734-2.738,0.996-3.484,0.804-8.147
	 M351.382,251.862c-1.245-5.726,0.996-7.468,2.489-10.704s4.48-4.978,4.48-10.455 M370.548,253.604
	c-1.671,0.193-1.494-7.717,0.249-13.192c1.742-5.476,0.748-4.231-2.986-1.743c-3.734,2.489-2.987,4.48-5.725,7.717
	c-2.739,3.235-0.665,5.959,1.991,9.209 M393.2,236.181c0-1.245,6.223-7.469,17.175-11.451c10.953-3.982,10.455-7.965,10.953-9.708
	c0.497-1.742,13.192,0.747,19.664-2.738 M385.981,241.407c-2.987-1.992,2.738-9.957,8.464-11.699
	c5.725-1.743,13.939-6.721,17.922-11.7c3.982-4.979,15.682-9.957,21.904-12.694c6.224-2.738,9.21,0.996,17.095-4.137
	 M452.443,199.838c1.076-1.34,1.493-3.485,0.996-5.228c-0.498-1.742,0.747-4.481,5.831-10.391 M422.801,221.431
	c4.756-0.76,2.012-1.181,2.012-3.422c0-2.24,3.484,0.499,8.214-0.248 M267.888,243.486v5.792 M269.524,245.752v5.793
	 M271.161,248.019v5.792 M263.116,234.527v5.792 M264.753,236.794v5.792 M266.39,239.061v5.792 M267.888,243.486v5.792
	 M269.524,245.752v5.793 M271.161,248.019v5.792 M263.116,234.527v5.792 M264.753,236.794v5.792 M266.39,239.061v5.792
	 M269.394,213.271v5.792 M271.031,215.537v5.792 M272.667,217.803v5.792 M264.622,204.311v5.793 M266.259,206.578v5.792
	 M267.896,208.845v5.792 M270.563,179.181v5.792 M272.199,181.448v5.792 M273.836,183.714v5.793 M265.791,170.223v5.792
	 M267.428,172.49v5.792 M269.065,174.756v5.792 M264.013,159.505l5.676,0.349 M271.523,158.633l-5.676-0.349 M273.357,157.411
	l-5.676-0.349 M269.514,155.838l5.676,0.349 M276.878,159.965l2.503-2.555 M277.926,157.434l2.503-2.556 M278.974,154.901
	l1.811-1.848 M276.878,151.146l2.503-2.556 M277.926,148.614l2.503-2.556 M278.974,146.082l1.811-1.848 M280.543,165.757
	l-2.184,2.261 M279.996,167.558l-2.185,2.261 M279.056,169.828l-2.184,2.262 M280.543,165.757l-2.184,2.261 M279.996,167.558
	l-2.185,2.261 M279.056,169.828l-2.184,2.262 M279.996,177.734l-2.185,2.263 M277.263,181.797l2.185-2.262 M278.508,181.807
	l-2.184,2.261 M278.743,190.495l-2.184,2.262 M278.195,192.296l-2.184,2.262 M277.255,194.566l-2.184,2.262 M277.96,202.708
	l-2.184,2.263 M277.412,204.509l-2.184,2.263 M276.473,206.779l-2.184,2.263 M287.973,211.327v5.105 M289.416,213.325v5.106
	 M304.251,205.719v5.106 M305.694,207.717v5.105 M318.721,198.485v5.105 M320.164,200.483v5.105 M328.16,193.874v5.793
	 M329.797,196.14v5.792 M331.435,198.407v5.792 M334.49,206.715v5.792 M336.127,208.982v5.792 M337.764,211.249v5.792
	 M348.056,220.281v5.792 M349.692,222.547v5.792 M351.329,224.813v5.792 M335.723,188.356v5.106 M337.166,190.354v5.105
	 M345.62,179.015v5.106 M347.062,181.013v5.105 M325.085,175.063v5.792 M326.722,177.33v5.792 M328.359,179.596v5.792
	 M352.758,171.445v5.792 M354.395,173.712v5.792 M356.032,175.979v5.792 M362.312,187.451v5.107 M363.754,189.449v5.105
	 M375.463,188.058v5.106 M376.906,190.056v5.106 M386.4,176.872v5.792 M388.037,179.138v5.792 M389.674,181.404v5.792
	 M394.455,194.027v5.105 M395.897,196.025v5.106 M399.699,202.708v5.105 M401.143,204.707v5.106 M399.699,202.708v5.105
	 M401.143,204.707v5.106 M409.466,186.792v5.106 M410.909,188.791v5.105 M437.237,274.241v5.792 M438.874,276.507v5.792
	 M440.511,278.774v5.792 M446.642,218.171v5.792 M448.279,220.438v5.792 M449.916,222.704v5.792 M363.142,150.678v5.792
	 M364.779,152.945v5.793 M366.417,155.211v5.792 M402.369,101.452v5.792 M404.006,103.718v5.793 M405.644,105.985v5.792
	 M345.835,127.987v5.792 M347.473,130.254v5.792 M349.11,132.521v5.792 M313.916,141.833v5.792 M315.553,144.099v5.792
	 M317.19,146.366v5.792 M286.994,115.681v5.792 M288.632,117.948v5.792 M290.269,120.214v5.793 M347.033,63.567v5.792
	 M348.67,65.833v5.793 M350.307,68.101v5.792 M364.296,98.76v5.792 M365.933,101.026v5.792 M367.57,103.292v5.793 M458.557,142.701
	v5.793 M460.194,144.967v5.792 M461.831,147.234v5.792 M422.774,170.02v5.106 M424.217,172.018v5.105 M435.85,157.712v5.106
	 M437.293,159.711v5.105 M399.699,151.56v5.105 M401.143,153.557v5.106 M410.389,134.277v5.105 M411.832,136.275v5.106
	 M378.48,130.608v5.106 M379.923,132.607v5.105 M394.632,76.383v5.106 M396.075,78.38v5.106 M448.157,128.1v5.106 M449.6,130.098
	v5.106 M437.004,105.024v5.106 M438.446,107.023v5.105 M432.367,75.299v5.792 M434.004,77.566v5.792 M435.641,79.833v5.792
	 M475.479,126.549v5.792 M477.114,128.815v5.793 M478.752,131.082v5.792 M481.248,95.398v5.792 M482.884,97.664v5.792
	 M484.521,99.931v5.792 M482.401,62.708V68.5 M484.039,64.975v5.792 M485.674,67.241v5.792 M474.708,31.557v5.792 M476.346,33.824
	v5.792 M477.983,36.09v5.792 M455.849,64.644v5.106 M457.292,66.642v5.105 M433.542,40.031v5.105 M434.985,42.029v5.105
	 M454.311,13.879v5.106 M455.753,15.877v5.106 M454.311,13.879v5.106 M455.753,15.877v5.106 M422.021,3.098V8.89 M423.659,5.364
	v5.792 M425.295,7.631v5.792 M377.795,0.021v5.793 M379.432,2.288V8.08 M381.068,4.554v5.792 M331.26,10.021v5.792 M332.897,12.287
	v5.792 M334.535,14.554v5.792 M296.263,38.095v5.792 M297.9,40.362v5.792 M299.538,42.628v5.792 M277.227,79.438v5.792
	 M278.864,81.704v5.792 M280.5,83.97v5.792 M271.842,106.742v5.792 M273.479,109.009v5.792 M275.116,111.275v5.792 M461.299,159.354
	l9.719,1.005 M461.17,159.208l1.769-1.129 M333.915,85.957v5.106 M335.358,87.956v5.105 M316.635,101.837v5.106 M318.078,103.835
	v5.105 M331.113,48.36v5.105 M332.556,50.357v5.106 M364.04,33.881v5.106 M365.483,35.879v5.105 M400.704,18.001v5.105
	 M402.146,19.999v5.106 M282.338,100.771l4.248-3.673 M283.034,97.589l4.247-3.674 M283.531,94.606l4.248-3.674 M290.591,71.834
	l4.248-3.673 M292.48,67.956l4.248-3.673 M294.469,64.376l4.248-3.673 M378.041,292.568c4.843-10.257,29.913-35.896,37.605-46.438
	 M412.884,227.382c-0.847,1.2-1.764,1.976-1.623,5.787c0.141,3.811,1.976,5.222,4.11,5.941c2.136,0.72,3.864-0.296,4.5-1.425"/>
</svg>
