<?xml version="1.0" encoding="utf-8"?>
<!-- Generator: Adobe Illustrator 16.0.0, SVG Export Plug-In . SVG Version: 6.00 Build 0)  -->
<!DOCTYPE svg PUBLIC "-//W3C//DTD SVG 1.1//EN" "http://www.w3.org/Graphics/SVG/1.1/DTD/svg11.dtd" [
	<!ENTITY ns_extend "http://ns.adobe.com/Extensibility/1.0/">
	<!ENTITY ns_ai "http://ns.adobe.com/AdobeIllustrator/10.0/">
	<!ENTITY ns_graphs "http://ns.adobe.com/Graphs/1.0/">
	<!ENTITY ns_vars "http://ns.adobe.com/Variables/1.0/">
	<!ENTITY ns_imrep "http://ns.adobe.com/ImageReplacement/1.0/">
	<!ENTITY ns_sfw "http://ns.adobe.com/SaveForWeb/1.0/">
	<!ENTITY ns_custom "http://ns.adobe.com/GenericCustomNamespace/1.0/">
	<!ENTITY ns_adobe_xpath "http://ns.adobe.com/XPath/1.0/">
]>
<svg version="1.1" id="Layer_1" xmlns:x="&ns_extend;" xmlns:i="&ns_ai;" xmlns:graph="&ns_graphs;"
	 xmlns="http://www.w3.org/2000/svg" xmlns:xlink="http://www.w3.org/1999/xlink" x="0px" y="0px" width="99.434px"
	 height="113.268px" viewBox="0 0 99.434 113.268" enable-background="new 0 0 99.434 113.268" xml:space="preserve">
<metadata>
	<sfw  xmlns="&ns_sfw;">
		<slices></slices>
		<sliceSourceBounds  height="113.266" width="99.435" x="370.782" y="363.868" bottomLeftOrigin="true"></sliceSourceBounds>
	</sfw>
</metadata>
<path fill="#DB9941" d="M65.516,15.17c0.103-1.459,0.359-2.639,0.773-3.54c0.412-0.898,1.084-1.909,2.014-3.034
	c0.412-0.448,0.93-0.954,1.549-1.517c0.619-0.562,1.031-0.448,1.239,0.337c0.102,0.337,0.334,1.068,0.697,2.19
	c0.359,1.125,0.747,2.333,1.161,3.624c0.411,1.293,0.773,2.558,1.084,3.792c0.311,1.238,0.465,2.137,0.465,2.697
	c-0.104,1.461-0.183,3.26-0.232,5.395c-0.053,2.136-0.077,4.495-0.077,7.078c2.993,0,5.832,0.084,8.52,0.253
	c2.684,0.169,5.11,0.366,7.278,0.591c0.825,0.112,1.729,0.281,2.712,0.506c0.979,0.227,1.883,0.45,2.71,0.674
	c1.03,0.337,1.626,0.59,1.78,0.758c0.155,0.168,0.696,0.366,1.626,0.59c0.412,0.228,0.619,0.535,0.619,0.928
	c0,0.395-0.362,0.702-1.084,0.927c-3.305,0.788-6.996,1.517-11.073,2.19c-4.081,0.675-8.44,1.293-13.088,1.854
	c0,5.17,0.024,10.562,0.077,16.181c0.051,5.62,0.078,10.956,0.078,16.013c2.373-0.109,4.619-0.194,6.737-0.253
	c2.113-0.056,4.154-0.025,6.118,0.084c0.823,0.113,1.728,0.228,2.71,0.338c0.979,0.112,1.883,0.281,2.71,0.506
	c0.516,0.112,0.902,0.227,1.162,0.337c0.256,0.113,0.487,0.197,0.696,0.253c0.205,0.058,0.411,0.113,0.619,0.169
	c0.205,0.058,0.566,0.143,1.084,0.252c0.412,0.227,0.619,0.535,0.619,0.928c0,0.396-0.362,0.703-1.084,0.927
	c-3.098,1.013-6.428,1.969-9.989,2.866c-3.562,0.9-7.307,1.799-11.229,2.696c0,2.136,0.023,4.074,0.077,5.815
	c0.052,1.742,0.076,3.229,0.076,4.467c0.104,0.787,0,1.883-0.309,3.286c-0.311,1.405-0.697,2.81-1.162,4.214
	c-0.465,1.405-0.905,2.696-1.315,3.877c-0.414,1.18-0.674,1.938-0.774,2.274c-1.757-1.234-3.047-2.808-3.872-4.72
	c-0.828-1.909-1.447-4.045-1.859-6.405c-0.104-1.233-0.207-2.78-0.309-4.635c-0.104-1.854-0.155-3.903-0.155-6.151
	c-4.337,0.786-8.673,1.546-13.011,2.274c-4.336,0.732-8.571,1.378-12.7,1.938c-0.104,3.708-0.208,7.247-0.31,10.617
	c-0.104,3.371-0.259,6.465-0.465,9.271l-0.465,4.045c-0.31,0.563-0.619,0.422-0.929-0.422c-0.31-0.842-0.673-1.375-1.084-1.603
	c-0.518-0.674-1.033-1.149-1.549-1.432c-0.518-0.279-0.929-0.813-1.239-1.602c-0.93-2.134-1.652-4.324-2.168-6.573
	c-0.31-1.235-0.595-2.837-0.852-4.804c-0.259-1.966-0.491-4.131-0.697-6.49c-4.646,0.563-8.906,0.984-12.778,1.265
	c-3.872,0.282-7.15,0.422-9.835,0.422c0.103-0.785,0.465-1.375,1.084-1.771c0.62-0.394,1.187-0.869,1.704-1.434
	c0.93-0.896,1.883-1.796,2.865-2.695c0.98-0.898,2.296-1.687,3.949-2.36c1.755-0.674,3.664-1.319,5.729-1.938
	c2.064-0.615,4.233-1.205,6.505-1.771c-0.414-6.178-0.696-12.415-0.852-18.709c-0.155-6.292-0.181-11.517-0.077-15.676
	c-5.886,0.227-11.229,0.337-16.03,0.337s-8.699-0.111-11.693-0.337c0.206-0.785,0.62-1.348,1.238-1.686
	c0.62-0.337,1.239-0.784,1.859-1.349c0.929-0.785,1.91-1.572,2.943-2.36c1.03-0.784,2.425-1.459,4.182-2.021
	c4.956-1.35,11.048-2.47,18.276-3.371c0.31-2.022,0.644-3.987,1.007-5.899c0.36-1.908,0.644-3.818,0.852-5.729
	c0.517-3.595,0.98-7.08,1.395-10.45c0.412-3.371,1.031-6.516,1.857-9.438c0.206-0.785,0.67-1.488,1.395-2.107
	C35.725,0.311,36.243,0,36.552,0l0.155,3.034c0.206,4.045,0.438,8.653,0.696,13.82c0.257,5.169,0.489,10.732,0.697,16.688
	c4.337-0.448,8.802-0.785,13.397-1.011c4.594-0.225,9.061-0.394,13.396-0.507c0.103-3.708,0.18-7.021,0.232-9.943
	C65.179,19.16,65.307,16.855,65.516,15.17z"/>
</svg>
