<?xml version="1.0" encoding="utf-8"?>
<!-- Generator: Adobe Illustrator 16.0.0, SVG Export Plug-In . SVG Version: 6.00 Build 0)  -->
<!DOCTYPE svg PUBLIC "-//W3C//DTD SVG 1.1//EN" "http://www.w3.org/Graphics/SVG/1.1/DTD/svg11.dtd" [
	<!ENTITY ns_extend "http://ns.adobe.com/Extensibility/1.0/">
	<!ENTITY ns_ai "http://ns.adobe.com/AdobeIllustrator/10.0/">
	<!ENTITY ns_graphs "http://ns.adobe.com/Graphs/1.0/">
	<!ENTITY ns_vars "http://ns.adobe.com/Variables/1.0/">
	<!ENTITY ns_imrep "http://ns.adobe.com/ImageReplacement/1.0/">
	<!ENTITY ns_sfw "http://ns.adobe.com/SaveForWeb/1.0/">
	<!ENTITY ns_custom "http://ns.adobe.com/GenericCustomNamespace/1.0/">
	<!ENTITY ns_adobe_xpath "http://ns.adobe.com/XPath/1.0/">
]>
<svg version="1.1" id="Layer_1" xmlns:x="&ns_extend;" xmlns:i="&ns_ai;" xmlns:graph="&ns_graphs;"
	 xmlns="http://www.w3.org/2000/svg" xmlns:xlink="http://www.w3.org/1999/xlink" x="0px" y="0px" width="35.139px"
	 height="40.75px" viewBox="0 0 35.139 40.75" enable-background="new 0 0 35.139 40.75" xml:space="preserve">
<metadata>
	<sfw  xmlns="&ns_sfw;">
		<slices></slices>
		<sliceSourceBounds  height="40.75" width="35.139" x="402.931" y="400.125" bottomLeftOrigin="true"></sliceSourceBounds>
	</sfw>
</metadata>
<path fill="#DB9941" d="M35.138,17.603v22.144H25.054v-4.332c-1.226,1.709-2.796,3.026-4.714,3.951
	C18.424,40.29,16.31,40.75,14,40.75c-4.413,0-7.849-1.166-10.309-3.5C1.23,34.918,0,31.661,0,27.479
	c0-4.527,1.467-7.871,4.401-10.031c2.934-2.16,7.473-3.24,13.618-3.24h7.034V12.51c0-1.64-0.596-2.881-1.784-3.725
	c-1.19-0.843-2.94-1.265-5.25-1.265c-2.427,0-4.776,0.306-7.053,0.918c-2.274,0.612-4.648,1.589-7.12,2.928V2.703
	c2.239-0.924,4.517-1.605,6.825-2.044C12.983,0.22,15.432,0,18.02,0c6.307,0,10.735,1.282,13.289,3.846
	C33.862,6.41,35.138,10.997,35.138,17.603z"/>
</svg>
