<?xml version="1.0" encoding="utf-8"?>
<!-- Generator: Adobe Illustrator 16.0.0, SVG Export Plug-In . SVG Version: 6.00 Build 0)  -->
<!DOCTYPE svg PUBLIC "-//W3C//DTD SVG 1.1//EN" "http://www.w3.org/Graphics/SVG/1.1/DTD/svg11.dtd" [
	<!ENTITY ns_extend "http://ns.adobe.com/Extensibility/1.0/">
	<!ENTITY ns_ai "http://ns.adobe.com/AdobeIllustrator/10.0/">
	<!ENTITY ns_graphs "http://ns.adobe.com/Graphs/1.0/">
	<!ENTITY ns_vars "http://ns.adobe.com/Variables/1.0/">
	<!ENTITY ns_imrep "http://ns.adobe.com/ImageReplacement/1.0/">
	<!ENTITY ns_sfw "http://ns.adobe.com/SaveForWeb/1.0/">
	<!ENTITY ns_custom "http://ns.adobe.com/GenericCustomNamespace/1.0/">
	<!ENTITY ns_adobe_xpath "http://ns.adobe.com/XPath/1.0/">
]>
<svg version="1.1" id="Layer_1" xmlns:x="&ns_extend;" xmlns:i="&ns_ai;" xmlns:graph="&ns_graphs;"
	 xmlns="http://www.w3.org/2000/svg" xmlns:xlink="http://www.w3.org/1999/xlink" x="0px" y="0px" width="37.182px"
	 height="39.746px" viewBox="0 0 37.182 39.746" enable-background="new 0 0 37.182 39.746" xml:space="preserve">
<metadata>
	<sfw  xmlns="&ns_sfw;">
		<slices></slices>
		<sliceSourceBounds  width="37.182" height="39.746" bottomLeftOrigin="true" y="-440.326" x="401.496"></sliceSourceBounds>
	</sfw>
</metadata>
<path fill="#DB9941" d="M21.068,4.816c0.763-1.64,1.732-2.853,2.911-3.639C25.157,0.393,26.602,0,28.311,0
	c3.35,0,5.666,1.155,6.948,3.465c1.282,2.311,1.923,7.116,1.923,14.416v21.866h-8.316V14.831c0-2.888-0.22-4.817-0.658-5.787
	c-0.439-0.97-1.236-1.455-2.391-1.455c-1.156,0-1.965,0.497-2.426,1.49c-0.463,0.994-0.693,2.911-0.693,5.752v24.915h-8.213V14.831
	c0-2.842-0.231-4.759-0.693-5.752c-0.462-0.993-1.271-1.49-2.425-1.49c-1.155,0-1.952,0.485-2.392,1.455s-0.658,2.899-0.658,5.787
	v24.915H0V0.936h7.381v4.02c0.577-1.525,1.501-2.731,2.772-3.621C11.424,0.445,12.844,0,14.415,0s3.003,0.468,4.297,1.403
	S20.791,3.477,21.068,4.816z"/>
</svg>
